{"accessors":[{"name":"Sweep.1-Mesh_positions","componentType":5126,"count":688,"min":[-211.1062774658203,-26.959609985351562,65.6243667602539],"max":[211.1062774658203,26.959609985351562,126.2406005859375],"type":"VEC3","bufferView":0,"byteOffset":0},{"name":"Sweep.1-Mesh_normals","componentType":5126,"count":688,"min":[-0.9999758005142212,-1,-0.9999994039535522],"max":[0.9999758005142212,1,0.9999994039535522],"type":"VEC3","bufferView":0,"byteOffset":180228},{"name":"Sweep.1-Mesh_texcoords","componentType":5126,"count":688,"min":[0,0],"max":[1,1],"type":"VEC2","bufferView":1,"byteOffset":0},{"name":"Sweep.1-Mesh_0_indices","componentType":5123,"count":2016,"min":[0],"max":[687],"type":"SCALAR","bufferView":2,"byteOffset":0},{"name":"Cap_1-Mesh_positions","componentType":5126,"count":8,"min":[-150.93435668945312,-26.959609985351562,114.4591293334961],"max":[150.93435668945312,26.959609985351562,122.9540786743164],"type":"VEC3","bufferView":0,"byteOffset":8256},{"name":"Cap_1-Mesh_normals","componentType":5126,"count":8,"min":[-0.6301981210708618,0,0.7764343619346619],"max":[0.6301981210708618,0,0.7764343619346619],"type":"VEC3","bufferView":0,"byteOffset":188484},{"name":"Cap_1-Mesh_texcoords","componentType":5126,"count":8,"min":[0,0],"max":[1,0.25],"type":"VEC2","bufferView":1,"byteOffset":5504},{"name":"Cap_1-Mesh_0_indices","componentType":5123,"count":12,"min":[0],"max":[7],"type":"SCALAR","bufferView":2,"byteOffset":4032},{"name":"Cap_2-Mesh_positions","componentType":5126,"count":8,"min":[-198.98544311523438,-26.959609985351562,117.11088562011719],"max":[198.98544311523438,26.959609985351562,126.2406005859375],"type":"VEC3","bufferView":0,"byteOffset":8352},{"name":"Cap_2-Mesh_normals","componentType":5126,"count":8,"min":[-0.6772884726524353,0,0.7357175350189209],"max":[0.6772884726524353,0,0.7357175350189209],"type":"VEC3","bufferView":0,"byteOffset":188580},{"name":"Cap_2-Mesh_texcoords","componentType":5126,"count":8,"min":[0,0],"max":[1,0.25],"type":"VEC2","bufferView":1,"byteOffset":5568},{"name":"Cap_2-Mesh_0_indices","componentType":5123,"count":12,"min":[0],"max":[7],"type":"SCALAR","bufferView":2,"byteOffset":4056},{"name":"Sweep-Mesh_positions","componentType":5126,"count":2622,"min":[-195.99911499023438,-24.65557098388672,-44.496337890625],"max":[195.99911499023438,24.65557098388672,72.3817367553711],"type":"VEC3","bufferView":0,"byteOffset":8448},{"name":"Sweep-Mesh_normals","componentType":5126,"count":2622,"min":[-0.9999794363975525,-1,-0.9999855756759644],"max":[0.9999794363975525,1,0.9999855756759644],"type":"VEC3","bufferView":0,"byteOffset":188676},{"name":"Sweep-Mesh_texcoords","componentType":5126,"count":2622,"min":[0,0],"max":[1,1],"type":"VEC2","bufferView":1,"byteOffset":5632},{"name":"Sweep-Mesh_0_indices","componentType":5123,"count":14688,"min":[0],"max":[2621],"type":"SCALAR","bufferView":2,"byteOffset":4080},{"name":"Cap_1_1-Mesh_positions","componentType":5126,"count":136,"min":[-99.18241882324219,-24.65557098388672,-44.433712005615234],"max":[99.18241882324219,24.65557098388672,4.876717567443848],"type":"VEC3","bufferView":0,"byteOffset":39912},{"name":"Cap_1_1-Mesh_normals","componentType":5126,"count":136,"min":[-0.9999856948852539,-0.00004503553282120265,0.005343693774193525],"max":[0.9999856948852539,0.000030018862162251025,0.005391461309045553],"type":"VEC3","bufferView":0,"byteOffset":220140},{"name":"Cap_1_1-Mesh_texcoords","componentType":5126,"count":136,"min":[0,0],"max":[1,1],"type":"VEC2","bufferView":1,"byteOffset":26608},{"name":"Cap_1_1-Mesh_0_indices","componentType":5123,"count":396,"min":[0],"max":[135],"type":"SCALAR","bufferView":2,"byteOffset":33456},{"name":"Cap_2_1-Mesh_positions","componentType":5126,"count":136,"min":[-195.52500915527344,-24.65557098388672,70.82133483886719],"max":[195.52500915527344,24.65557098388672,72.3817367553711],"type":"VEC3","bufferView":0,"byteOffset":41544},{"name":"Cap_2_1-Mesh_normals","componentType":5126,"count":136,"min":[-0.03166627138853073,-0.000007284061211976223,0.9994984865188599],"max":[0.03166627138853073,0.00003883090539602563,0.9994996190071106],"type":"VEC3","bufferView":0,"byteOffset":221772},{"name":"Cap_2_1-Mesh_texcoords","componentType":5126,"count":136,"min":[0,0],"max":[1,1],"type":"VEC2","bufferView":1,"byteOffset":27696},{"name":"Cap_2_1-Mesh_0_indices","componentType":5123,"count":396,"min":[0],"max":[135],"type":"SCALAR","bufferView":2,"byteOffset":34248},{"name":"Null.1-Mesh_positions","componentType":5126,"count":11421,"min":[-100,-100,-100],"max":[100,130.50880432128906,100],"type":"VEC3","bufferView":0,"byteOffset":43176},{"name":"Null.1-Mesh_normals","componentType":5126,"count":11421,"min":[-1,-1,-1],"max":[1,1,1],"type":"VEC3","bufferView":0,"byteOffset":223404},{"name":"Null.1-Mesh_texcoords","componentType":5126,"count":11421,"min":[0,0],"max":[1,1],"type":"VEC2","bufferView":1,"byteOffset":28784},{"name":"Null.1-Mesh_0_indices","componentType":5123,"count":12,"min":[11314],"max":[11402],"type":"SCALAR","bufferView":2,"byteOffset":35040},{"name":"Null.1-Mesh_1_indices","componentType":5123,"count":55476,"min":[0],"max":[11323],"type":"SCALAR","bufferView":2,"byteOffset":35064},{"name":"Null.1-Mesh_2_indices","componentType":5123,"count":72,"min":[11324],"max":[11371],"type":"SCALAR","bufferView":2,"byteOffset":146016},{"name":"Null.1-Mesh_3_indices","componentType":5123,"count":168,"min":[11305],"max":[11420],"type":"SCALAR","bufferView":2,"byteOffset":146160}],"asset":{"generator":"obj2gltf","version":"2.0"},"buffers":[{"name":"input","byteLength":627104,"uri":"data:application/octet-stream;base64,"}],"bufferViews":[{"name":"bufferView_0","buffer":0,"byteLength":360456,"byteOffset":0,"byteStride":12,"target":34962},{"name":"bufferView_1","buffer":0,"byteLength":120152,"byteOffset":360456,"byteStride":8,"target":34962},{"name":"bufferView_2","buffer":0,"byteLength":146496,"byteOffset":480608,"target":34963}],"materials":[{"name":"Mat.2","pbrMetallicRoughness":{"baseColorFactor":[0.5,0.5,0.5,1],"metallicFactor":0,"roughnessFactor":1},"emissiveFactor":[0,0,0],"alphaMode":"OPAQUE","doubleSided":false},{"name":"Mat.1","pbrMetallicRoughness":{"baseColorFactor":[0.5,0.5,0.5,1],"metallicFactor":0,"roughnessFactor":1},"emissiveFactor":[0,0,0],"alphaMode":"OPAQUE","doubleSided":false},{"name":"Mat","pbrMetallicRoughness":{"baseColorFactor":[0.5,0.5,0.5,1],"metallicFactor":0,"roughnessFactor":1},"emissiveFactor":[0,0,0],"alphaMode":"OPAQUE","doubleSided":false},{"name":"Mat_1","pbrMetallicRoughness":{"baseColorFactor":[0.5,0.5,0.5,1],"metallicFactor":0,"roughnessFactor":1},"emissiveFactor":[0,0,0],"alphaMode":"OPAQUE","doubleSided":false}],"meshes":[{"name":"Sweep.1-Mesh","primitives":[{"attributes":{"POSITION":0,"NORMAL":1,"TEXCOORD_0":2},"indices":3,"material":0,"mode":4}]},{"name":"Cap_1-Mesh","primitives":[{"attributes":{"POSITION":4,"NORMAL":5,"TEXCOORD_0":6},"indices":7,"material":0,"mode":4}]},{"name":"Cap_2-Mesh","primitives":[{"attributes":{"POSITION":8,"NORMAL":9,"TEXCOORD_0":10},"indices":11,"material":0,"mode":4}]},{"name":"Sweep-Mesh","primitives":[{"attributes":{"POSITION":12,"NORMAL":13,"TEXCOORD_0":14},"indices":15,"material":0,"mode":4}]},{"name":"Cap_1_1-Mesh","primitives":[{"attributes":{"POSITION":16,"NORMAL":17,"TEXCOORD_0":18},"indices":19,"material":0,"mode":4}]},{"name":"Cap_2_1-Mesh","primitives":[{"attributes":{"POSITION":20,"NORMAL":21,"TEXCOORD_0":22},"indices":23,"material":0,"mode":4}]},{"name":"Null.1-Mesh","primitives":[{"attributes":{"POSITION":24,"NORMAL":25,"TEXCOORD_0":26},"indices":27,"material":0,"mode":4},{"attributes":{"POSITION":24,"NORMAL":25,"TEXCOORD_0":26},"indices":28,"material":1,"mode":4},{"attributes":{"POSITION":24,"NORMAL":25,"TEXCOORD_0":26},"indices":29,"material":2,"mode":4},{"attributes":{"POSITION":24,"NORMAL":25,"TEXCOORD_0":26},"indices":30,"material":3,"mode":4}]}],"nodes":[{"name":"Sweep.1","mesh":0},{"name":"Cap_1","mesh":1},{"name":"Cap_2","mesh":2},{"name":"Sweep","mesh":3},{"name":"Cap_1_1","mesh":4},{"name":"Cap_2_1","mesh":5},{"name":"Null.1","mesh":6}],"scene":0,"scenes":[{"nodes":[0,1,2,3,4,5,6]}]}
