# Blender v2.79 (sub 0) OBJ File: 'hagi.blend'
# www.blender.org
mtllib hagi.mtl
o Cube
v 1.000000 -1.000000 -1.000000
v 1.000000 -1.000000 1.000000
v -1.000000 -1.000000 1.000000
v -1.000000 -1.000000 -1.000000
v 1.000000 1.000000 -0.999999
v 0.999999 1.000000 1.000001
v -1.000000 1.000000 1.000000
v -1.000000 1.000000 -1.000000
vt 0.688456 0.651165
vt 0.688455 0.322007
vt 0.937558 0.322007
vt 0.937558 0.651165
vt 0.468395 0.651165
vt 0.247481 0.651165
vt 0.247481 0.322007
vt 0.468395 0.322007
vt 0.468395 0.019168
vt 0.247481 0.019169
vt 0.035962 0.322007
vt 0.035962 0.651165
vt 0.468395 0.958608
vt 0.247481 0.958608
vn 0.0000 -1.0000 0.0000
vn 0.0000 1.0000 0.0000
vn 1.0000 0.0000 0.0000
vn -0.0000 -0.0000 1.0000
vn -1.0000 -0.0000 -0.0000
vn 0.0000 0.0000 -1.0000
usemtl マテリアル
s off
f 1/1/1 2/2/1 3/3/1 4/4/1
f 5/5/2 8/6/2 7/7/2 6/8/2
f 1/1/3 5/5/3 6/8/3 2/2/3
f 2/9/4 6/8/4 7/7/4 3/10/4
f 3/11/5 7/7/5 8/6/5 4/12/5
f 5/5/6 1/13/6 4/14/6 8/6/6
